<svg xmlns="http://www.w3.org/2000/svg" width="100" height="100"><g transform="translate(317.788 -383.543)"><rect width="63.214" height="40.714" x="-299.897" y="413.183" fill="#f9f9f9" fill-rule="evenodd" stroke="#000" stroke-linecap="round" stroke-linejoin="round" stroke-width=".8" rx="3.599" ry="3.599"/><path fill="#f72000" fill-rule="evenodd" d="m -271.98358,433.51749 c 0,5.50918 -4.46607,9.97525 -9.97525,9.97525 -5.50918,0 -9.97526,-4.46607 -9.97526,-9.97525 0,-5.50919 4.46608,-9.97526 9.97526,-9.97526 5.50918,0 9.97525,4.46607 9.97525,9.97526 z" transform="matrix(1.06027 0 0 1.06027 22.989 -30.063)"/><path fill="#fb0" fill-rule="evenodd" d="m -271.98358,433.51749 c 0,5.50918 -4.46607,9.97525 -9.97525,9.97525 -5.50918,0 -9.97526,-4.46607 -9.97526,-9.97525 0,-5.50919 4.46608,-9.97526 9.97526,-9.97526 5.50918,0 9.97525,4.46607 9.97525,9.97526 z" transform="matrix(1.06027 0 0 1.06027 38.135 -30.063)"/><path fill="#f72000" fill-opacity=".378" fill-rule="evenodd" d="m -271.98358,433.51749 c 0,5.50918 -4.46607,9.97525 -9.97525,9.97525 -5.50918,0 -9.97526,-4.46607 -9.97526,-9.97525 0,-5.50919 4.46608,-9.97526 9.97526,-9.97526 5.50918,0 9.97525,4.46607 9.97525,9.97526 z" transform="matrix(1.06027 0 0 1.06027 22.989 -30.063)"/><g transform="scale(.86766 1.15253)" style="line-height:125%" font-family="Sans" font-size="9.575" font-weight="400" letter-spacing="0" word-spacing="0"><path d="M-338.47119 383.99581l2.78637 0 1.07527 4.1702 1.0706-4.1702 2.77701 0 0 6.85371-1.72979 0 0-5.22677-1.34175 5.22677-1.56616 0-1.33708-5.22677 0 5.22677-1.73447 0zM-327.80727 387.49279l-1.81862-.19168c.0686-.3179.16753-.56802.29687-.75035.12935-.18233.31557-.3405.55868-.47453.17453-.0966.41452-.17141.71996-.2244.30544-.053.63582-.0795.99113-.0795.57036.00001 1.02852.0319 1.37448.0958.34595.0639.63425.19714.86489.39972.16207.14026.28985.33895.38336.59608.0935.25713.14025.50258.14025.73633l0 2.19262c0 .23376.0148.41687.0444.54933.0296.13246.0943.30154.19401.50725l-1.78589 0c-.0717-.12779-.11844-.22519-.14025-.2922-.0218-.067-.0436-.1722-.0654-.31557-.24934.23999-.49712.41141-.74334.51427-.33661.13713-.72776.2057-1.17345.2057-.59219 0-1.04178-.13714-1.34877-.41141-.307-.27427-.4605-.61244-.4605-1.0145 0-.37712.11064-.68724.33193-.93034.22129-.24311.62958-.42388 1.22488-.54232.71373-.14336 1.17656-.24388 1.38851-.30154.21193-.0577.43634-.13324.67321-.22674 0-.23375-.0483-.39738-.14493-.49089-.0966-.0935-.26648-.14025-.50958-.14025-.31168 0-.54544.0499-.70127.1496-.12155.0779-.21973.22441-.29453.43946zm1.65031 1.00047c-.26181.0935-.53452.1761-.81814.24778-.38648.10286-.63114.20415-.73399.30389-.10598.10285-.15896.21973-.15896.35063 0 .1496.0522.27194.15662.367.10441.0951.25791.14259.4605.14259.21193 0 .40906-.0514.5914-.15428.18232-.10285.31167-.2283.38803-.37635.0764-.14804.11454-.3405.11454-.57737zM-323.4828 389.47504l1.88874-.17766c.0779.22441.18701.38492.32726.48154.14025.0966.32726.14493.56101.14493.25557 0 .45349-.0546.59374-.16363.10909-.081.16363-.18233.16363-.30388 0-.13714-.0717-.24311-.21505-.31791-.10286-.053-.37557-.11844-.81815-.19636-.66075-.11531-1.11969-.22206-1.37682-.32024-.25713-.0982-.47374-.26414-.64983-.4979-.1761-.23375-.26415-.50023-.26415-.79944 0-.32726.0951-.60932.28518-.8462.19012-.23686.45193-.41374.78542-.53062.33349-.11687.78074-.17531 1.34176-.17532.59217.00001 1.0293.0452 1.31136.13558.28206.0904.51738.23064.70594.42076.18856.19013.34518.44726.46985.77139l-1.80459.17766c-.0467-.15895-.12467-.27583-.23375-.35064-.14961-.0997-.33038-.1496-.54232-.1496-.21505 0-.37167.0382-.46984.11454-.0982.0764-.14727.16909-.14727.27817 0 .12156.0623.2135.187.27583.12467.0623.39583.11844.81347.1683.6327.0717 1.10332.17143 1.41188.29921.30856.12779.54465.31012.70828.54699.16363.23687.24544.49712.24545.78074-.00001.28674-.0865.56569-.25947.83685-.17299.27115-.4457.48699-.81815.6475-.37245.16051-.8797.24077-1.52174.24077-.90697 0-1.55292-.12935-1.93783-.38804-.38492-.25869-.63192-.62646-.74101-1.10332zM-314.99748 383.99581l0 1.88875 1.04722 0 0 1.3885-1.04722 0 0 1.76252c0 .21194.0202.35219.0608.42076.0623.10597.17141.15895.32725.15895.14025 0 .33661-.0405.58907-.12155l.14025 1.3137c-.47063.10285-.91009.15428-1.31838.15428-.47375 0-.82282-.0608-1.04722-.18233-.22441-.12155-.39038-.30622-.4979-.554-.10753-.24778-.1613-.64906-.16129-1.20384l0-1.74849-.70127 0 0-1.3885.70127 0 0-.91165zM-307.53601 388.83922l-3.81489 0c.0343.30544.11688.53297.24778.68257.18389.21505.42388.32258.71997.32258.187 0 .36465-.0468.53296-.14025.10285-.0592.21349-.16363.33193-.31324l1.87472.17298c-.28674.49868-.6327.85633-1.03787 1.07294-.40518.21661-.98645.32492-1.74382.32492-.65763 0-1.17501-.0927-1.55213-.27817-.37713-.18544-.68958-.47998-.93736-.88359-.24778-.40362-.37167-.87814-.37167-1.42357 0-.77607.24856-1.40409.74568-1.88407.49712-.47997 1.18358-.71996 2.05938-.71997.71061.00001 1.27163.10753 1.68304.32258.4114.21506.72464.52674.9397.93503.21505.40829.32257.9397.32258 1.59421zm-1.93549-.91164c-.0374-.36778-.13637-.63114-.29687-.7901-.16052-.15895-.37168-.23842-.63348-.23843-.30233.00001-.54387.12-.72464.35999-.11532.1496-.18857.37245-.21973.66854zM-306.63372 385.88456l1.78122 0 0 .81346c.17142-.35218.34829-.59451.53062-.72698.18233-.13245.40751-.19868.67556-.19869.2805.00001.5875.0873.92099.26181l-.58906 1.35578c-.22441-.0935-.40206-.14025-.53296-.14025-.24935 0-.44258.10285-.57972.30855-.19635.28986-.29453.83217-.29453 1.62694l0 1.66434-1.91212 0zM-297.71829 388.04913l1.85602.56101c-.12468.5205-.32103.95528-.58906 1.30436-.26805.34907-.60076.61244-.99814.79009-.39739.17765-.90308.26648-1.51707.26648-.7449 0-1.35345-.10831-1.82563-.32492-.47219-.21661-.8797-.59763-1.22254-1.14306-.34284-.54543-.51426-1.24358-.51426-2.09445 0-1.13449.30154-2.00639.90463-2.61572.60309-.60932 1.45629-.91398 2.55962-.91399.86333.00001 1.542.17455 2.03601.52362.494.34908.86099.88516 1.10099 1.60823l-1.87004.41609c-.0655-.20882-.13403-.36154-.20571-.45816-.11844-.16207-.26337-.28674-.43478-.37401-.17143-.0873-.36311-.1309-.57504-.1309-.47998 0-.84776.19324-1.10333.57971-.19324.28674-.28986.73711-.28985 1.3511-.00001.76049.11531 1.28176.34596 1.56383.23063.28206.55477.4231.97242.42309.40517.00001.71139-.11375.91866-.34128.20725-.22752.35764-.55789.45114-.99112zM-293.23019 387.49279l-1.81861-.19168c.0686-.3179.16752-.56802.29687-.75035.12934-.18233.31557-.3405.55867-.47453.17454-.0966.41453-.17141.71997-.2244.30544-.053.63581-.0795.99112-.0795.57036.00001 1.02852.0319 1.37448.0958.34596.0639.63425.19714.8649.39972.16206.14026.28985.33895.38336.59608.0935.25713.14024.50258.14025.73633l0 2.19262c-.00001.23376.0148.41687.0444.54933.0296.13246.0943.30154.19402.50725l-1.78589 0c-.0717-.12779-.11844-.22519-.14025-.2922-.0218-.067-.0436-.1722-.0655-.31557-.24934.23999-.49712.41141-.74334.51427-.33661.13713-.72776.2057-1.17345.2057-.59218 0-1.04177-.13714-1.34877-.41141-.307-.27427-.4605-.61244-.4605-1.0145 0-.37712.11065-.68724.33194-.93034.22128-.24311.62958-.42388 1.22487-.54232.71374-.14336 1.17657-.24388 1.38851-.30154.21194-.0577.43634-.13324.67322-.22674-.00001-.23375-.0483-.39738-.14493-.49089-.0966-.0935-.26649-.14025-.50959-.14025-.31167 0-.54543.0499-.70126.1496-.12156.0779-.21974.22441-.29454.43946zm1.65032 1.00047c-.26181.0935-.53453.1761-.81815.24778-.38647.10286-.63114.20415-.73399.30389-.10597.10285-.15895.21973-.15895.35063 0 .1496.0522.27194.15661.367.10441.0951.25791.14259.4605.14259.21194 0 .40907-.0514.5914-.15428.18233-.10285.31167-.2283.38804-.37635.0763-.14804.11453-.3405.11454-.57737zM-288.5504 385.88456l1.78121 0 0 .81346c.17142-.35218.34829-.59451.53063-.72698.18232-.13245.40751-.19868.67555-.19869.2805.00001.5875.0873.921.26181l-.58907 1.35578c-.22441-.0935-.40206-.14025-.53296-.14025-.24934 0-.44258.10285-.57971.30855-.19636.28986-.29454.83217-.29454 1.62694l0 1.66434-1.91211 0zM-279.09734 383.99581l0 6.85371-1.78122 0 0-.73399c-.24934.31167-.47686.52205-.68256.63114-.27428.14337-.57972.21505-.91632.21505-.67634 0-1.19293-.25713-1.5498-.77139-.35687-.51426-.5353-1.13917-.5353-1.87472 0-.82282.19713-1.4524.5914-1.88874.39427-.43634.89528-.65451 1.50305-.65452.29609.00001.5649.0499.80645.14961.24155.0997.45582.24934.64283.44881l0-2.37496zm-1.90744 4.3572c-.00001-.38959-.0826-.68022-.24778-.87191-.16519-.19167-.37402-.28751-.62647-.28752-.22129.00001-.40674.0919-.55634.27584-.1496.18389-.2244.49244-.2244.92567 0 .40518.0771.70204.23142.8906.15427.18857.34517.28285.5727.28285.2431 0 .44569-.0951.60776-.28518.16207-.19012.2431-.50024.24311-.93035z" style="text-align:start;line-height:125%;-inkscape-font-specification:'Arial Black, Heavy'" font-family="Arial Black" font-weight="900"/></g></g></svg>