<svg width="54" height="37" viewBox="0 0 54 37" fill="none" xmlns="http://www.w3.org/2000/svg">
    <rect x=".5" y=".5" width="53" height="36" rx="3.5" fill="#fff" stroke="#F3F3F3"/>
    <path d="M23.976 25.376H20.38l2.248-12.95h3.595l-2.248 12.95zM37.008 12.742a9.436 9.436 0 0 0-3.224-.552c-3.55 0-6.05 1.764-6.066 4.285-.03 1.86 1.79 2.893 3.15 3.513 1.392.634 1.865 1.048 1.865 1.613-.015.867-1.124 1.267-2.16 1.267-1.435 0-2.204-.206-3.373-.689l-.473-.206-.503 2.907c.843.357 2.396.675 4.01.689 3.772 0 6.228-1.736 6.257-4.423.014-1.474-.947-2.604-3.018-3.527-1.258-.593-2.027-.992-2.027-1.598.014-.552.65-1.116 2.07-1.116a6.496 6.496 0 0 1 2.678.496l.325.137.49-2.796z" fill="#15195A"/>
    <path fill-rule="evenodd" clip-rule="evenodd" d="M43.444 12.425h2.78l2.901 12.95h-3.329s-.325-1.487-.429-1.942h-4.615l-.755 1.943h-3.772l5.34-11.876c.37-.84 1.021-1.075 1.879-1.075zm-.222 4.74s-1.139 2.879-1.435 3.623h2.988c-.148-.648-.828-3.747-.828-3.747l-.252-1.116c-.105.287-.258.682-.362.948-.07.181-.117.303-.11.291zM4.803 12.425h5.785c.784.028 1.42.262 1.627 1.089l1.257 5.95v.001l.385 1.791 3.52-8.83h3.802l-5.65 12.936h-3.802L8.522 14.11a15.284 15.284 0 0 0-3.778-1.422l.06-.262z" fill="#15195A"/>
</svg>
